<?xml version="1.0" standalone="no"?>
<!DOCTYPE svg PUBLIC "-//W3C//DTD SVG 20010904//EN"
 "http://www.w3.org/TR/2001/REC-SVG-20010904/DTD/svg10.dtd">
<svg version="1.0" xmlns="http://www.w3.org/2000/svg"
 width="144.000000pt" height="144.000000pt" viewBox="0 0 144.000000 144.000000"
 preserveAspectRatio="xMidYMid meet">
<metadata>
Created by potrace 1.16, written by Peter Selinger 2001-2019
</metadata>
<g transform="translate(0.000000,144.000000) scale(0.100000,-0.100000)"
fill="#000000" stroke="none">
<path d="M397 849 c-163 -21 -294 -61 -347 -106 -86 -72 17 -150 210 -159 l95
-4 -53 15 c-152 43 -171 105 -48 165 82 39 296 80 426 80 25 0 52 5 60 10 19
12 -246 11 -343 -1z"/>
<path d="M555 819 c-107 -14 -229 -46 -285 -74 -43 -22 -50 -29 -50 -56 0 -25
6 -32 38 -46 20 -8 55 -18 77 -20 l40 -5 -25 17 c-41 29 -51 45 -39 67 20 37
161 82 355 112 l89 14 -65 0 c-36 0 -96 -5 -135 -9z"/>
<path d="M582 724 c-52 -36 -2 -148 57 -129 29 9 28 43 -1 47 -28 4 -37 42
-12 52 26 10 44 -13 44 -55 0 -35 3 -39 25 -39 23 0 25 3 25 50 0 37 -5 55
-20 70 -25 25 -86 27 -118 4z"/>
<path d="M876 728 c-12 -7 -16 -24 -16 -68 0 -53 2 -60 20 -60 15 0 20 7 20
29 0 16 3 36 6 45 12 31 24 16 24 -29 0 -41 2 -45 25 -45 23 0 25 4 25 45 0
33 4 45 15 45 11 0 15 -12 15 -45 0 -41 2 -45 25 -45 24 0 25 3 25 54 0 74
-12 84 -98 84 -38 -1 -77 -5 -86 -10z"/>
<path d="M1101 714 c-23 -30 -26 -55 -10 -85 22 -42 99 -48 99 -8 0 13 -7 19
-24 19 -13 0 -27 7 -30 16 -6 16 9 44 25 44 19 0 39 -34 39 -66 0 -27 4 -34
20 -34 18 0 20 7 20 53 0 66 -19 87 -78 87 -32 0 -45 -6 -61 -26z"/>
<path d="M1270 731 c0 -4 9 -20 21 -35 l21 -27 -27 -34 -26 -35 33 0 c19 0 39
5 45 11 8 8 13 8 17 0 7 -11 66 -16 66 -6 0 3 -10 19 -22 35 l-22 30 22 30
c12 16 22 32 22 35 0 10 -59 5 -66 -6 -4 -8 -9 -8 -17 0 -13 13 -67 15 -67 2z"/>
</g>
</svg>
